<?xml version="1.0" encoding="UTF-8" standalone="no"?>
<svg
   viewBox="0 0 32 32"
   version="1.1"
   id="svg18"
   sodipodi:docname="profile.svg"
   inkscape:version="1.2 (dc2aedaf03, 2022-05-15)"
   xmlns:inkscape="http://www.inkscape.org/namespaces/inkscape"
   xmlns:sodipodi="http://sodipodi.sourceforge.net/DTD/sodipodi-0.dtd"
   xmlns="http://www.w3.org/2000/svg"
   xmlns:svg="http://www.w3.org/2000/svg">
  <sodipodi:namedview
     id="namedview20"
     pagecolor="#505050"
     bordercolor="#eeeeee"
     borderopacity="1"
     inkscape:showpageshadow="0"
     inkscape:pageopacity="0"
     inkscape:pagecheckerboard="0"
     inkscape:deskcolor="#505050"
     showgrid="false"
     inkscape:zoom="8.2541828"
     inkscape:cx="5.8758088"
     inkscape:cy="14.84096"
     inkscape:window-width="1346"
     inkscape:window-height="691"
     inkscape:window-x="8"
     inkscape:window-y="39"
     inkscape:window-maximized="1"
     inkscape:current-layer="svg18" />
  <defs
     id="defs4">
    <style
       id="style2">.cls-1{fill:none;}</style>
  </defs>
  <title
     id="title6" />
  <g
     data-name="Layer 2"
     id="Layer_2"
     style="stroke:none;stroke-opacity:1;fill:#0f172a;fill-opacity:1">
    <path
       d="M16,29A13,13,0,1,1,29,16,13,13,0,0,1,16,29ZM16,5A11,11,0,1,0,27,16,11,11,0,0,0,16,5Z"
       id="path8"
       style="stroke:none;stroke-opacity:1;fill:#0f172a;fill-opacity:1" />
    <path
       d="M16,17a5,5,0,1,1,5-5A5,5,0,0,1,16,17Zm0-8a3,3,0,1,0,3,3A3,3,0,0,0,16,9Z"
       id="path10"
       style="stroke:none;stroke-opacity:1;fill:#0f172a;fill-opacity:1" />
    <path
       d="M25.55,24a1,1,0,0,1-.74-.32A11.35,11.35,0,0,0,16.46,20h-.92a11.27,11.27,0,0,0-7.85,3.16,1,1,0,0,1-1.38-1.44A13.24,13.24,0,0,1,15.54,18h.92a13.39,13.39,0,0,1,9.82,4.32A1,1,0,0,1,25.55,24Z"
       id="path12"
       style="stroke:none;stroke-opacity:1;fill:#0f172a;fill-opacity:1" />
  </g>
  <g
     id="frame"
     style="stroke:none;stroke-opacity:1">
    <rect
       class="cls-1"
       height="32"
       width="32"
       id="rect15"
       style="stroke:none;stroke-opacity:1" />
  </g>
</svg>
